# xmcd
#
# Track frame offsets: 
#        150
#        15176
#        30648
#        43174
#        57082
#        67604
#        79550
#        92863
#        104036
#        117082
#        129630
#        140707
#        154725
#        168217
#        183741
#        197269
#        211490
#        223737
#        237499
#        251175
#
# Disc length: 3513 seconds
#
# Revision: 2
# Processed by: cddbd v1.5.2PL0 Copyright (c) Steve Scherf et al.
# Submitted via: ExactAudioCopyFreeDBPlugin 1.0
#
DISCID=190db714
DTITLE=Various Artist - CD 08 Saint - Germain - des - Pres
DYEAR=2009
DGENRE=Jazz
TTITLE0=Johnny Hodges and Shorty Baker - Saint Germain des Pres Blues
TTITLE1=Juliette Greco - Sous le ciel de Paris
TTITLE2=Miles Davis - Deception
TTITLE3=Henri Salvador - Saint Germain des Pres
TTITLE4=Boris Vian - That Da Da Strain
TTITLE5=Ray Ventura et son Orchestre - Armstrong, Duke Ellington, Cab 
TTITLE5=Calloway
TTITLE6=Sidney Bechet - Honeysuckle Rose
TTITLE7=Yves Montand - Un gamin de Paris
TTITLE8=Noel Chiboust et son Orchestre - Gout du jour
TTITLE9=Claude Luther - Riz a la creole
TTITLE10=Les Freres Jacques - Et la fete continue
TTITLE11=Sidney Bechet - Wrap your troubles In Dreams
TTITLE12=Mouloudji - Les rues de Paris
TTITLE13=Charlie Parker - How Deep In The Ocean
TTITLE14=Edith Piaf - Bal dans ma rue
TTITLE15=Django Reinhardt - Nuit de Saint Germain des Pres
TTITLE16=Charles Trenet - L' ame des poetes
TTITLE17=Kenny Clarke - Annel (Sweet And Lovely)
TTITLE18=Juliette Greco - Je suis comme je suis
TTITLE19=Eddie Barclay - Peche mignon
EXTD=YEAR: 2004
EXTT0=
EXTT1=
EXTT2=
EXTT3=
EXTT4=
EXTT5=
EXTT6=
EXTT7=
EXTT8=
EXTT9=
EXTT10=
EXTT11=
EXTT12=
EXTT13=
EXTT14=
EXTT15=
EXTT16=
EXTT17=
EXTT18=
EXTT19=
PLAYORDER=
